<svg xmlns="http://www.w3.org/2000/svg" width="30" height="31" fill="none"><path fill="#0448F4" d="M21.25 2.59H10c-2.763 0-5 2.237-5 5v9.062c0 .688.563 1.25 1.25 1.25H25c.688 0 1.25-.562 1.25-1.25V7.59c0-2.763-2.238-5-5-5ZM10 16.027H8.75a.944.944 0 0 1-.938-.937c0-.513.426-.938.938-.938H10c.512 0 .938.425.938.938a.944.944 0 0 1-.938.937Zm0-3.125H8.75a.944.944 0 0 1-.938-.937c0-.513.426-.938.938-.938H10c.512 0 .938.425.938.938a.944.944 0 0 1-.938.937Zm0-3.125H8.75a.944.944 0 0 1-.938-.937c0-.513.426-.938.938-.938H10c.512 0 .938.425.938.938a.944.944 0 0 1-.938.937Zm-5 11.25v1.563c0 2.762 2.237 5 5 5h11.25a5 5 0 0 0 5-5v-1.563c0-.687-.563-1.25-1.25-1.25H6.25c-.688 0-1.25.563-1.25 1.25Zm17.137 3.388a1.314 1.314 0 0 1-.887.362c-.325 0-.65-.137-.887-.362a1.314 1.314 0 0 1-.363-.888c0-.325.137-.65.363-.887.462-.463 1.3-.463 1.774 0 .226.237.363.562.363.887 0 .325-.137.65-.363.888Z"/></svg>