<svg xmlns="http://www.w3.org/2000/svg" width="16" height="16" fill="none"><g clip-path="url(#a)"><g clip-path="url(#b)"><g clip-path="url(#c)"><path fill="#fff" d="M14.146 14.509 9.429 7.098l4.653-5.12a.603.603 0 0 0-.89-.812L8.758 6.041l-3.05-4.79a.602.602 0 0 0-.51-.28H1.583a.603.603 0 0 0-.509.926l4.717 7.409-4.653 5.125a.603.603 0 1 0 .891.81l4.432-4.874 3.05 4.793a.603.603 0 0 0 .51.276h3.616a.603.603 0 0 0 .509-.926v-.001Zm-3.794-.28L2.679 2.176h2.186l7.674 12.053H10.35Z"/></g></g></g><defs><clipPath id="a"><path fill="#fff" d="M.44.97h15v15h-15z"/></clipPath><clipPath id="b"><path fill="#fff" d="M.44.97h15v15h-15z"/></clipPath><clipPath id="c"><path fill="#fff" d="M.976.97h13.929v15H.975z"/></clipPath></defs></svg>