<svg xmlns="http://www.w3.org/2000/svg" width="75" height="76" fill="none"><g clip-path="url(#a)"><path fill="#0448F4" d="M37.5 75.18c20.71 0 37.5-16.79 37.5-37.5S58.21.18 37.5.18 0 16.97 0 37.68s16.79 37.5 37.5 37.5Z"/><path fill="#fff" d="M38 20.18c-9.377 0-17 7.623-17 17 0 9.377 7.623 17 17 17 9.377 0 17-7.623 17-17 0-9.377-7.623-17-17-17Zm12.92 17c0 .967-.107 1.897-.322 2.828-1.61-.18-3.257-.287-5.01-.394.035-.823.07-1.61.07-2.434 0-.823-.035-1.61-.07-2.434 1.717-.107 3.4-.214 5.01-.393.215.895.322 1.86.322 2.827Zm-25.84 0c0-.966.107-1.932.322-2.827 1.61.179 3.293.286 5.01.393-.035.824-.07 1.611-.07 2.434 0 .823.035 1.61.07 2.434-1.753.107-3.4.215-5.01.394a12.231 12.231 0 0 1-.322-2.828Zm16.499 0c0 .823-.036 1.54-.072 2.29a226.766 226.766 0 0 0-6.979 0 44.68 44.68 0 0 1-.071-2.29c0-.823.036-1.539.071-2.29 1.146.035 2.29.071 3.472.071 1.181 0 2.326-.035 3.507-.071.036.751.072 1.503.072 2.29Zm-.573-6.334c-2.004.035-4.008.035-5.977 0 .824-4.295 2.327-6.586 3.007-6.586.608 0 2.111 2.29 2.97 6.585Zm-6.012 12.669c1.968-.036 4.008-.036 5.977 0-.824 4.295-2.327 6.585-3.007 6.585-.608 0-2.111-2.29-2.97-6.585Zm13.993-13.099c-1.252.107-2.54.215-3.865.286-.322-1.825-.752-3.543-1.36-5.046a13.119 13.119 0 0 1 5.225 4.76Zm-16.75-4.76c-.572 1.503-1.037 3.221-1.36 5.046a122.169 122.169 0 0 1-3.864-.286 13.119 13.119 0 0 1 5.225-4.76Zm-5.224 18.288c1.252-.107 2.54-.214 3.865-.286.322 1.825.752 3.543 1.36 5.046a12.894 12.894 0 0 1-5.225-4.76Zm16.75 4.76c.572-1.503 1.037-3.22 1.36-5.046 1.323.072 2.612.179 3.864.286a12.894 12.894 0 0 1-5.225 4.76Z"/></g><defs><clipPath id="a"><path fill="#fff" d="M0 .18h75v75H0z"/></clipPath></defs></svg>