<svg xmlns="http://www.w3.org/2000/svg" width="26" height="26" fill="none"><rect width="24.947" height="24.947" x=".632" y=".631" fill="#0448F4" rx="12.474"/><path fill="#fff" fill-rule="evenodd" d="m13.041 19.427.001-.001h.002l.003-.004.013-.01a5.904 5.904 0 0 0 .21-.162 17.984 17.984 0 0 0 2.31-2.215c1.243-1.431 2.595-3.5 2.595-5.79a5.544 5.544 0 0 0-11.087 0c0 2.29 1.353 4.359 2.595 5.79a17.997 17.997 0 0 0 2.31 2.215 10.728 10.728 0 0 0 .21.163l.013.01.004.002.001.001a.69.69 0 0 0 .82 0Zm-.41-6.45a1.733 1.733 0 1 0-.001-3.465 1.733 1.733 0 0 0 0 3.465Z" clip-rule="evenodd"/></svg>