<svg xmlns="http://www.w3.org/2000/svg" width="119" height="25" fill="none"><path fill="#fff" d="M10.24 15.24c-.33-.33-.77-.52-1.24-.52H3.92c-.61 0-1.17.31-1.49.83-.32.51-.35 1.12-.09 1.66a10.84 10.84 0 0 0 6.09 5.43c.18.06.38.1.57.1a1.764 1.764 0 0 0 1.75-1.76l.01-4.5c-.01-.47-.19-.91-.52-1.24Z"/><path fill="#0448F4" d="M22.48 10.1C21.36 5.18 17.05 1.75 12 1.75c-5.05 0-9.36 3.43-10.48 8.35-.12.52 0 1.05.34 1.47.34.42.84.66 1.38.66h17.53a1.735 1.735 0 0 0 1.71-2.13Z"/><path fill="#fff" d="M21.56 15.6c-.32-.52-.88-.84-1.5-.84L15 14.75a1.739 1.739 0 0 0-1.75 1.75l.01 4.48a1.764 1.764 0 0 0 1.75 1.76c.19 0 .38-.03.56-.1 2.62-.92 4.84-2.89 6.07-5.38.26-.53.23-1.15-.08-1.66Zm10.09 3.9V3.924h11.088V6.85h-7.942v4.026h6.71v2.904h-6.71v5.72H31.65Zm11.957 0V3.924h3.08V19.5h-3.08Zm10.054.154c-1.174 0-2.2-.235-3.08-.704a5.088 5.088 0 0 1-2.046-2.046c-.484-.895-.726-1.95-.726-3.168 0-1.247.242-2.317.726-3.212a5.16 5.16 0 0 1 2.068-2.09c.88-.484 1.892-.726 3.036-.726 1.173 0 2.192.25 3.058.748a5.238 5.238 0 0 1 2.024 2.09c.484.895.726 1.965.726 3.212 0 1.217-.242 2.273-.726 3.168a4.843 4.843 0 0 1-2.002 2.024c-.85.47-1.87.704-3.058.704Zm-.044-2.816c.675 0 1.217-.147 1.628-.44.41-.293.704-.675.88-1.144.19-.484.286-.99.286-1.518s-.096-1.034-.286-1.518a2.539 2.539 0 0 0-.88-1.188c-.396-.323-.939-.484-1.628-.484-.66 0-1.195.161-1.606.484-.41.308-.712.704-.902 1.188-.176.484-.264.99-.264 1.518 0 .543.088 1.049.264 1.518.19.47.491.85.902 1.144.41.293.946.44 1.606.44Zm9.408 2.662L59.373 7.906h3.366l2.156 8.074 2.288-8.074h3.454l2.288 8.074 2.112-8.074h3.322L74.707 19.5h-3.542l-2.31-7.832-2.288 7.832h-3.542Zm22.774.176c-1.584 0-2.934-.33-4.048-.99a6.622 6.622 0 0 1-2.552-2.794c-.587-1.203-.88-2.603-.88-4.202 0-1.188.161-2.266.484-3.234.337-.983.821-1.826 1.452-2.53a6.293 6.293 0 0 1 2.354-1.606c.924-.381 1.973-.572 3.146-.572 1.188 0 2.251.19 3.19.572a5.7 5.7 0 0 1 2.332 1.716c.63.748 1.041 1.687 1.232 2.816h-3.19c-.118-.484-.33-.88-.638-1.188a2.87 2.87 0 0 0-1.166-.726c-.455-.161-.975-.242-1.562-.242-.807 0-1.489.14-2.046.418a3.705 3.705 0 0 0-1.364 1.144 4.874 4.874 0 0 0-.748 1.628 7.862 7.862 0 0 0-.22 1.87c0 .88.147 1.701.44 2.464a4.088 4.088 0 0 0 1.386 1.826c.63.455 1.467.682 2.508.682.69 0 1.298-.103 1.826-.308.543-.22.975-.543 1.298-.968.337-.44.528-.968.572-1.584h-4.246v-2.706h7.48v.858c0 1.584-.264 2.948-.792 4.092-.528 1.144-1.313 2.024-2.354 2.64-1.041.616-2.34.924-3.894.924Zm8.171-.176V7.906h2.772l.198 1.386c.294-.44.624-.77.99-.99a3.188 3.188 0 0 1 1.144-.462 5.845 5.845 0 0 1 1.738-.11h.352v2.97h-.726c-.69 0-1.29.117-1.804.352a2.54 2.54 0 0 0-1.188 1.1c-.264.499-.396 1.137-.396 1.914V19.5h-3.08Zm7.757 0V7.906h3.08V19.5h-3.08Zm1.54-12.76c-.572 0-1.034-.169-1.386-.506-.352-.352-.528-.8-.528-1.342 0-.572.183-1.034.55-1.386.367-.352.829-.528 1.386-.528.513 0 .953.176 1.32.528.381.337.572.792.572 1.364 0 .557-.183 1.012-.55 1.364-.352.337-.807.506-1.364.506Zm7.875 12.914c-1.173 0-2.148-.264-2.926-.792a4.996 4.996 0 0 1-1.716-2.156c-.381-.91-.572-1.914-.572-3.014 0-1.159.206-2.185.616-3.08.411-.91 1.02-1.62 1.826-2.134.807-.513 1.812-.77 3.014-.77a4.8 4.8 0 0 1 1.21.154c.411.088.785.227 1.122.418.352.176.653.41.902.704v-5.06h3.08V19.5h-2.992l-.044-1.298a3.318 3.318 0 0 1-.968.836c-.366.205-.762.36-1.188.462a5.78 5.78 0 0 1-1.364.154Zm.616-2.772c.66 0 1.196-.154 1.606-.462.426-.308.741-.704.946-1.188a3.946 3.946 0 0 0 .308-1.562c0-.572-.102-1.093-.308-1.562a2.365 2.365 0 0 0-.924-1.144c-.41-.293-.953-.44-1.628-.44-.674 0-1.217.154-1.628.462a2.53 2.53 0 0 0-.88 1.21 4.919 4.919 0 0 0-.242 1.562c0 .41.044.807.132 1.188.103.367.264.697.484.99.22.293.506.528.858.704.352.161.778.242 1.276.242Z"/></svg>