<svg xmlns="http://www.w3.org/2000/svg" width="32" height="32" fill="none"><rect width="31" height="31" x=".5" y=".5" fill="#FAFAFA" rx="4.5"/><rect width="31" height="31" x=".5" y=".5" stroke="#E9E9E9" rx="4.5"/><path fill="#0448F4" d="M14.534 18.283a1.457 1.457 0 0 0-1.034-.433H9.267a1.45 1.45 0 0 0-1.242.692 1.413 1.413 0 0 0-.075 1.383 9.034 9.034 0 0 0 5.075 4.525c.15.05.317.083.475.083a1.47 1.47 0 0 0 1.458-1.467l.009-3.75a1.493 1.493 0 0 0-.433-1.033Z" opacity=".4"/><path fill="#0448F4" d="M24.733 14C23.8 9.9 20.208 7.042 16 7.042 11.79 7.042 8.2 9.9 7.266 14c-.1.433 0 .875.284 1.225.283.35.7.55 1.15.55h14.608A1.446 1.446 0 0 0 24.733 14Z"/><path fill="#0448F4" d="M23.968 18.583a1.462 1.462 0 0 0-1.25-.7l-4.217-.008a1.449 1.449 0 0 0-1.458 1.458l.008 3.734a1.47 1.47 0 0 0 1.459 1.466c.158 0 .316-.025.466-.083a9.043 9.043 0 0 0 5.059-4.483 1.435 1.435 0 0 0-.067-1.384Z" opacity=".4"/></svg>